if (_typeface_js && _typeface_js.loadFace) _typeface_js.loadFace({"glyphs":{"S":{"x_min":11,"x_max":622,"ha":856,"o":"m 134 117 l 505 117 l 505 367 l 622 367 l 622 117 l 505 116 l 505 0 l 134 0 l 134 117 m 11 245 l 122 245 l 122 123 l 11 122 l 11 245 m 134 489 l 499 489 l 499 378 l 134 378 l 134 489 m 11 750 l 128 750 l 128 867 l 499 867 l 499 750 l 128 750 l 128 499 l 11 499 l 11 750 m 511 744 l 622 744 l 622 633 l 511 633 l 511 744 "},"/":{"x_min":11,"x_max":877,"ha":1098,"o":"m 11 117 l 128 117 l 128 239 l 250 239 l 250 372 l 383 372 l 383 494 l 505 495 l 505 617 l 627 617 l 627 739 l 760 739 l 760 867 l 877 867 l 877 739 l 760 738 l 760 617 l 627 617 l 627 495 l 505 494 l 505 372 l 383 372 l 383 239 l 250 239 l 250 117 l 128 117 l 128 0 l 11 0 l 11 117 "},"K":{"x_min":11,"x_max":633,"ha":862,"o":"m 11 867 l 139 867 l 139 501 l 261 500 l 261 628 l 383 628 l 383 750 l 505 750 l 505 867 l 633 867 l 633 750 l 505 750 l 505 628 l 383 628 l 383 495 l 261 495 l 261 372 l 139 372 l 139 0 l 11 0 l 11 867 m 383 254 l 499 254 l 499 133 l 383 133 l 383 254 m 267 366 l 377 366 l 377 255 l 267 255 l 267 366 m 505 132 l 633 132 l 633 0 l 505 0 l 505 132 "},"7":{"x_min":11,"x_max":633,"ha":862,"o":"m 11 250 l 139 250 l 139 372 l 261 372 l 261 494 l 383 495 l 383 617 l 510 617 l 510 750 l 11 750 l 11 867 l 633 867 l 633 617 l 516 617 l 516 495 l 383 494 l 383 372 l 261 372 l 261 250 l 139 250 l 139 0 l 11 0 l 11 250 "},"d":{"x_min":11,"x_max":622,"ha":856,"o":"m 134 117 l 505 117 l 505 489 l 622 489 l 622 117 l 505 117 l 505 0 l 134 0 l 134 117 m 11 495 l 128 495 l 128 617 l 505 617 l 505 865 l 620 865 l 620 617 l 505 617 l 505 495 l 128 495 l 128 123 l 11 123 l 11 495 "},",":{"x_min":-109,"x_max":136,"ha":373,"o":"m -109 -3 l 19 -3 l 19 236 l 136 236 l 136 -3 l 19 -3 l 19 -120 l -109 -120 l -109 -3 "},"Y":{"x_min":11,"x_max":622,"ha":860,"o":"m 255 372 l 383 372 l 383 494 l 505 494 l 505 867 l 622 867 l 622 494 l 505 494 l 505 372 l 383 372 l 383 0 l 255 0 l 255 372 m 128 498 l 244 498 l 244 378 l 128 378 l 128 498 m 11 867 l 122 867 l 122 500 l 11 500 l 11 867 "},"E":{"x_min":11,"x_max":622.921875,"ha":851,"o":"m 134 111 l 622 111 l 622 0 l 134 0 l 134 111 m 11 361 l 128 361 l 128 489 l 500 489 l 500 361 l 128 361 l 128 113 l 11 113 l 11 361 m 11 739 l 128 739 l 128 856 l 622 856 l 622 739 l 128 739 l 128 500 l 11 500 l 11 739 "},"y":{"x_min":11,"x_max":622,"ha":856,"o":"m 11 -128 l 128 -128 l 128 -6 l 250 -6 l 250 250 l 383 250 l 383 372 l 505 372 l 505 622 l 622 622 l 622 372 l 505 372 l 505 250 l 383 250 l 383 -6 l 250 -6 l 250 -128 l 128 -128 l 128 -245 l 11 -245 l 11 -128 m 134 364 l 244 364 l 244 253 l 134 253 l 134 364 m 11 621 l 122 621 l 122 368 l 11 367 l 11 621 "},"\"":{"x_min":2,"x_max":444,"ha":687,"o":"m 2 867 l 124 867 l 124 622 l 2 622 l 2 867 m 322 867 l 444 867 l 444 622 l 322 622 l 322 867 "},"g":{"x_min":11,"x_max":633,"ha":867,"o":"m 144 -5 l 500 -5 l 500 233 l 383 233 l 383 122 l 11 122 l 11 494 l 138 494 l 138 611 l 500 611 l 500 494 l 144 494 l 144 244 l 383 244 l 383 361 l 506 361 l 506 488 l 633 488 l 633 -5 l 506 -5 l 506 -133 l 144 -133 l 144 -5 "},"–":{"x_min":11.109375,"x_max":463.375,"ha":693,"o":"m 11 467 l 463 467 l 463 356 l 11 356 l 11 467 "},"e":{"x_min":11,"x_max":622,"ha":856,"o":"m 133 121 l 622 121 l 622 0 l 133 0 l 133 121 m 11 494 l 127 494 l 127 611 l 500 611 l 500 494 l 133 495 l 133 361 l 366 361 l 366 239 l 127 239 l 127 122 l 11 122 l 11 494 m 501 488 l 622 489 l 622 367 l 501 367 l 501 488 "},"J":{"x_min":11,"x_max":622,"ha":851,"o":"m 133 128 l 505 128 l 505 744 l 622 744 l 622 128 l 505 128 l 505 0 l 133 0 l 133 128 m 11 245 l 131 245 l 131 125 l 11 125 l 11 245 m 254 867 l 499 867 l 499 756 l 254 756 l 254 867 "},"|":{"x_min":11,"x_max":122,"ha":356,"o":"m 11 938 l 122 938 l 122 -70 l 11 -70 l 11 938 "},"^":{"x_min":25,"x_max":625,"ha":851,"o":"m 256 750 l 384 750 l 384 617 l 506 617 l 506 496 l 625 496 l 625 617 l 506 617 l 506 750 l 384 750 l 384 867 l 256 867 l 256 750 m 143 631 l 254 631 l 254 753 l 143 753 l 143 631 m 25 494 l 136 495 l 136 629 l 25 629 l 25 494 "},"q":{"x_min":11,"x_max":633,"ha":867,"o":"m 505 122 l 382 122 l 382 0 l 143 0 l 143 128 l 382 128 l 382 250 l 505 250 l 505 488 l 633 488 l 633 -122 l 505 -122 l 505 122 m 11 494 l 128 494 l 128 622 l 499 622 l 499 494 l 128 494 l 128 134 l 11 134 l 11 494 "},"b":{"x_min":11,"x_max":633,"ha":867,"o":"m 145 117 l 505 117 l 505 488 l 633 488 l 633 117 l 505 117 l 505 0 l 145 0 l 145 117 m 11 494 l 139 494 l 139 611 l 499 611 l 499 494 l 139 494 l 139 123 l 11 123 l 11 494 m 11 866 l 133 866 l 133 613 l 11 613 l 11 866 "},"D":{"x_min":11,"x_max":622,"ha":856,"o":"m 11 856 l 499 856 l 499 739 l 133 739 l 133 122 l 505 122 l 505 733 l 622 733 l 622 116 l 505 116 l 505 0 l 11 0 l 11 856 "},"z":{"x_min":11.328125,"x_max":622.6875,"ha":860,"o":"m 11 117 l 128 117 l 128 250 l 250 250 l 250 372 l 367 372 l 367 494 l 11 494 l 11 622 l 622 622 l 622 494 l 506 494 l 506 372 l 373 372 l 373 250 l 256 250 l 256 117 l 622 117 l 622 0 l 11 0 l 11 117 "},"w":{"x_min":11,"x_max":756,"ha":985,"o":"m 132 117 l 383 117 l 383 622 l 500 622 l 500 117 l 383 117 l 383 0 l 132 0 l 132 117 m 511 117 l 628 117 l 628 622 l 756 622 l 756 117 l 628 117 l 628 0 l 511 0 l 511 117 m 11 622 l 122 622 l 122 123 l 11 123 l 11 622 "},"$":{"x_min":11,"x_max":633,"ha":858,"o":"m 145 116 l 261 116 l 261 361 l 383 361 l 383 489 l 500 489 l 500 361 l 389 361 l 389 122 l 506 122 l 506 355 l 633 355 l 633 116 l 506 116 l 506 0 l 389 0 l 389 -126 l 262 -126 l 262 0 l 145 0 l 145 116 m 11 233 l 133 233 l 133 122 l 11 122 l 11 233 m 145 494 l 255 495 l 255 733 l 139 733 l 139 500 l 11 500 l 11 739 l 139 739 l 139 861 l 261 861 l 261 989 l 383 989 l 383 861 l 500 861 l 500 739 l 383 739 l 383 494 l 261 494 l 261 367 l 145 367 l 145 494 m 512 733 l 633 733 l 633 622 l 512 622 l 512 733 "},"\\":{"x_min":11,"x_max":877,"ha":1107,"o":"m 877 117 l 760 117 l 760 239 l 638 239 l 638 372 l 505 372 l 505 494 l 383 495 l 383 617 l 261 617 l 261 739 l 128 739 l 128 867 l 11 867 l 11 739 l 128 738 l 127 617 l 261 617 l 261 495 l 383 494 l 383 372 l 505 372 l 505 239 l 638 239 l 638 117 l 760 117 l 761 0 l 877 0 l 877 117 "},"’":{"x_min":7,"x_max":129,"ha":362,"o":"m 7 867 l 129 867 l 129 622 l 7 622 l 7 867 "},"~":{"x_min":11.0625,"x_max":624,"ha":858,"o":"m 11 739 l 261 739 l 261 867 l 500 867 l 500 739 l 261 739 l 261 622 l 11 622 l 11 739 m 502 733 l 624 733 l 624 622 l 502 622 l 502 733 "},"-":{"x_min":11.109375,"x_max":463.375,"ha":693,"o":"m 11 467 l 463 467 l 463 356 l 11 356 l 11 467 "},"Q":{"x_min":11,"x_max":634,"ha":871,"o":"m 145 128 l 384 128 l 384 251 l 506 251 l 506 744 l 634 744 l 634 251 l 506 251 l 506 128 l 384 128 l 383 0 l 145 0 l 145 128 m 512 122 l 634 122 l 634 0 l 512 0 l 512 122 m 11 750 l 139 750 l 139 867 l 500 867 l 500 750 l 139 750 l 139 134 l 11 134 l 11 750 m 267 368 l 378 368 l 378 257 l 267 257 l 267 368 "},"M":{"x_min":11,"x_max":744,"ha":973,"o":"m 11 750 l 128 750 l 128 867 l 366 867 l 366 750 l 128 750 l 128 0 l 11 0 l 11 750 m 378 750 l 506 750 l 506 867 l 623 867 l 623 750 l 506 750 l 506 0 l 378 0 l 378 750 m 633 744 l 744 744 l 744 0 l 633 0 l 633 744 "},"C":{"x_min":11,"x_max":633,"ha":862,"o":"m 134 117 l 505 117 l 505 234 l 633 234 l 633 117 l 505 117 l 505 0 l 134 0 l 134 117 m 11 739 l 128 739 l 128 856 l 500 856 l 500 739 l 128 739 l 128 123 l 11 123 l 11 739 m 501 743 l 633 743 l 633 622 l 501 622 l 501 743 "},"[":{"x_min":11,"x_max":255.234375,"ha":493,"o":"m 11 867 l 255 867 l 255 739 l 133 739 l 133 117 l 255 117 l 255 0 l 11 0 l 11 867 "},"L":{"x_min":11,"x_max":500.265625,"ha":733,"o":"m 11 867 l 128 867 l 128 128 l 500 128 l 500 0 l 11 0 l 11 867 "},"!":{"x_min":11,"x_max":133,"ha":371,"o":"m 11 111 l 133 111 l 133 0 l 11 0 l 11 111 m 11 867 l 133 867 l 133 244 l 11 244 l 11 867 "}," ":{"x_min":0,"x_max":0,"ha":378},"{":{"x_min":11,"x_max":256,"ha":493,"o":"m 134 111 l 256 111 l 256 0 l 134 0 l 134 111 m 11 750 l 128 750 l 128 867 l 256 867 l 256 750 l 128 750 l 128 122 l 11 122 l 11 750 "},"X":{"x_min":11,"x_max":623,"ha":856,"o":"m 11 250 l 128 250 l 128 372 l 262 372 l 262 494 l 384 494 l 384 628 l 506 628 l 506 867 l 623 867 l 623 628 l 506 628 l 506 494 l 384 494 l 384 372 l 262 372 l 262 250 l 128 250 l 128 0 l 11 0 l 11 250 m 512 244 l 623 244 l 623 0 l 512 0 l 512 244 m 390 366 l 509 367 l 510 247 l 390 247 l 390 366 m 134 622 l 256 622 l 256 500 l 134 500 l 134 622 m 11 867 l 131 867 l 132 624 l 11 624 l 11 867 "},"P":{"x_min":11,"x_max":622,"ha":856,"o":"m 11 867 l 499 867 l 499 750 l 134 750 l 134 500 l 505 500 l 505 744 l 622 744 l 622 494 l 505 494 l 505 372 l 128 372 l 128 0 l 11 0 l 11 867 "},"%":{"x_min":11,"x_max":878,"ha":1111,"o":"m 11 117 l 128 117 l 128 240 l 251 239 l 251 372 l 384 372 l 384 495 l 506 495 l 506 617 l 628 617 l 627 739 l 762 739 l 762 867 l 878 867 l 878 739 l 762 740 l 762 617 l 627 617 l 628 495 l 506 495 l 506 372 l 384 372 l 384 240 l 251 239 l 251 117 l 128 117 l 128 0 l 11 0 l 11 117 m 634 117 l 762 117 l 762 234 l 878 233 l 878 117 l 762 117 l 762 0 l 633 0 l 634 117 m 512 239 l 628 240 l 628 366 l 756 367 l 756 240 l 628 239 l 627 123 l 512 123 l 512 239 m 134 617 l 251 617 l 251 733 l 378 734 l 378 617 l 251 617 l 251 501 l 134 501 l 134 617 m 11 739 l 128 740 l 128 867 l 245 867 l 245 739 l 128 740 l 128 623 l 11 623 l 11 739 "},"#":{"x_min":11,"x_max":757,"ha":989,"o":"m 134 229 l 134 0 l 261 0 l 261 239 l 505 239 l 505 372 l 627 373 l 627 496 l 757 496 l 757 616 l 627 616 l 627 495 l 505 495 l 505 373 l 261 372 l 261 238 l 130 238 l 134 229 m 511 239 l 511 0 l 627 0 l 627 241 l 757 241 l 757 374 l 627 375 l 627 239 l 511 239 m 11 372 l 11 238 l 128 238 l 128 372 l 261 373 l 261 495 l 505 495 l 505 617 l 621 617 l 622 867 l 505 867 l 505 617 l 261 617 l 261 496 l 128 496 l 128 373 l 11 372 m 11 617 l 11 496 l 128 496 l 128 617 l 255 617 l 256 867 l 128 867 l 128 617 l 11 617 "},"_":{"x_min":-6.671875,"x_max":615.609375,"ha":609,"o":"m -6 -113 l 615 -113 l 615 -235 l -6 -235 l -6 -113 "},"+":{"x_min":11.203125,"x_max":377.6875,"ha":611,"o":"m 139 251 l 11 251 l 11 372 l 139 372 l 139 618 l 261 618 l 261 372 l 377 372 l 377 251 l 261 251 l 261 4 l 139 4 l 139 251 "},")":{"x_min":11,"x_max":256,"ha":493,"o":"m 133 111 l 11 111 l 11 0 l 133 0 l 133 111 m 256 750 l 139 750 l 139 867 l 11 867 l 11 750 l 139 750 l 139 122 l 256 122 l 256 750 "},"'":{"x_min":7,"x_max":129,"ha":362,"o":"m 7 867 l 129 867 l 129 622 l 7 622 l 7 867 "},"}":{"x_min":11,"x_max":256,"ha":493,"o":"m 133 111 l 11 111 l 11 0 l 133 0 l 133 111 m 256 750 l 139 750 l 139 867 l 11 867 l 11 750 l 139 750 l 139 122 l 256 122 l 256 750 "},"a":{"x_min":11,"x_max":634,"ha":862,"o":"m 11 239 l 138 239 l 138 361 l 517 361 l 517 488 l 634 488 l 634 0 l 11 0 l 11 239 m 144 233 l 144 122 l 511 122 l 511 233 l 144 233 m 144 611 l 511 611 l 511 500 l 144 500 l 144 611 "},"T":{"x_min":11.109375,"x_max":634.03125,"ha":862,"o":"m 267 750 l 384 750 l 384 867 l 634 867 l 634 750 l 384 750 l 384 0 l 267 0 l 267 750 m 11 867 l 255 867 l 255 756 l 11 756 l 11 867 "},"=":{"x_min":11.109375,"x_max":500.046875,"ha":733,"o":"m 11 240 l 500 240 l 500 129 l 11 129 l 11 240 m 11 498 l 500 498 l 500 387 l 11 387 l 11 498 "},"N":{"x_min":11,"x_max":622,"ha":856,"o":"m 11 867 l 128 867 l 128 627 l 245 627 l 245 494 l 128 494 l 128 0 l 11 0 l 11 867 m 505 250 l 389 250 l 389 372 l 505 372 l 505 867 l 622 867 l 622 0 l 505 0 l 505 250 m 246 494 l 386 494 l 386 370 l 246 370 l 246 494 "},"2":{"x_min":11,"x_max":622,"ha":856,"o":"m 11 372 l 127 372 l 127 494 l 505 494 l 505 744 l 622 744 l 622 494 l 505 494 l 505 372 l 133 372 l 133 117 l 622 117 l 622 0 l 11 0 l 11 372 m 11 750 l 127 750 l 127 867 l 499 867 l 499 750 l 127 750 l 127 622 l 11 622 l 11 750 "},"j":{"x_min":11,"x_max":634,"ha":867,"o":"m 144 -17 l 517 -17 l 517 611 l 634 611 l 634 -17 l 517 -17 l 517 -134 l 144 -134 l 144 -17 m 11 106 l 142 106 l 142 -16 l 11 -16 l 11 106 "},"Z":{"x_min":11,"x_max":622,"ha":856,"o":"m 11 250 l 127 250 l 127 372 l 250 372 l 250 494 l 383 495 l 383 628 l 499 628 l 499 750 l 11 750 l 11 867 l 622 867 l 622 628 l 505 628 l 505 495 l 383 494 l 383 372 l 250 372 l 250 250 l 133 250 l 133 117 l 622 117 l 622 0 l 11 0 l 11 250 "},"u":{"x_min":11,"x_max":622,"ha":856,"o":"m 132 117 l 505 117 l 505 622 l 622 622 l 622 117 l 505 117 l 505 0 l 132 0 l 132 117 m 11 622 l 122 622 l 122 123 l 11 123 l 11 622 "},"1":{"x_min":10.875,"x_max":366.6875,"ha":600,"o":"m 10 117 l 122 117 l 122 750 l 10 750 l 10 867 l 250 867 l 250 117 l 366 117 l 366 0 l 10 0 l 10 117 "},"k":{"x_min":11,"x_max":634.46875,"ha":867,"o":"m 11 867 l 139 867 l 139 378 l 261 378 l 261 494 l 384 494 l 384 622 l 501 622 l 501 494 l 384 494 l 384 372 l 261 372 l 261 250 l 139 250 l 139 0 l 11 0 l 11 867 m 390 122 l 634 122 l 634 0 l 390 0 l 390 122 m 267 244 l 383 244 l 383 124 l 267 124 l 267 244 "},"<":{"x_min":10.984375,"x_max":633,"ha":867,"o":"m 633 117 l 505 117 l 505 239 l 383 239 l 383 361 l 261 361 l 261 489 l 10 489 l 10 361 l 261 361 l 261 239 l 383 239 l 383 117 l 505 117 l 505 0 l 633 0 l 633 117 m 377 611 l 267 611 l 267 491 l 378 491 l 377 611 m 499 734 l 380 733 l 380 613 l 500 613 l 499 734 m 633 867 l 502 867 l 502 736 l 633 736 l 633 867 "},"t":{"x_min":10.984375,"x_max":633.03125,"ha":862,"o":"m 390 112 l 500 112 l 500 0 l 390 0 l 390 112 m 267 494 l 384 494 l 384 622 l 633 622 l 633 494 l 384 494 l 383 121 l 267 121 l 267 494 m 10 628 l 261 628 l 261 867 l 378 867 l 378 628 l 261 628 l 261 500 l 10 500 l 10 628 "},"W":{"x_min":11,"x_max":745,"ha":978,"o":"m 132 117 l 383 117 l 383 867 l 500 867 l 500 117 l 383 117 l 383 0 l 132 0 l 132 117 m 511 117 l 628 117 l 628 867 l 745 867 l 745 117 l 628 117 l 628 0 l 511 0 l 511 117 m 11 867 l 122 867 l 122 123 l 11 123 l 11 867 "},"v":{"x_min":11,"x_max":622,"ha":851,"o":"m 255 117 l 383 117 l 383 250 l 505 250 l 505 622 l 622 622 l 622 250 l 505 250 l 505 117 l 383 117 l 383 0 l 255 0 l 255 117 m 128 254 l 244 254 l 244 123 l 128 123 l 128 254 m 11 622 l 122 622 l 122 256 l 11 256 l 11 622 "},">":{"x_min":11,"x_max":633.03125,"ha":867,"o":"m 11 117 l 139 117 l 139 239 l 261 239 l 261 361 l 383 361 l 383 489 l 633 489 l 633 361 l 383 361 l 383 239 l 261 239 l 261 117 l 139 117 l 139 0 l 11 0 l 11 117 m 267 611 l 377 611 l 377 491 l 267 491 l 267 611 m 144 734 l 264 733 l 264 613 l 145 613 l 144 734 m 11 867 l 142 867 l 142 736 l 11 736 l 11 867 "},"s":{"x_min":11,"x_max":633,"ha":862,"o":"m 144 117 l 511 117 l 511 250 l 11 250 l 11 494 l 138 494 l 138 622 l 511 622 l 511 494 l 144 494 l 144 372 l 633 372 l 633 117 l 517 117 l 517 0 l 144 0 l 144 117 "},"B":{"x_min":11,"x_max":633,"ha":867,"o":"m 11 856 l 499 856 l 499 739 l 144 739 l 144 500 l 505 500 l 505 733 l 633 733 l 633 494 l 505 494 l 505 361 l 144 361 l 144 122 l 505 122 l 505 355 l 633 355 l 633 116 l 505 116 l 505 0 l 11 0 l 11 856 "},"…":{"x_min":11.109375,"x_max":818.953125,"ha":1062,"o":"m 707 233 l 707 0 l 818 0 l 818 233 l 707 233 m 11 233 l 11 0 l 122 0 l 122 233 l 11 233 m 362 233 l 362 0 l 473 0 l 473 233 l 362 233 "},"?":{"x_min":11,"x_max":634,"ha":867,"o":"m 11 111 l 133 111 l 133 0 l 11 0 l 11 111 m 11 361 l 139 361 l 139 494 l 517 494 l 517 733 l 634 733 l 634 494 l 517 494 l 517 361 l 139 361 l 139 244 l 11 244 l 11 361 m 11 739 l 139 739 l 139 867 l 511 867 l 511 739 l 139 739 l 139 622 l 11 622 l 11 739 "},"H":{"x_min":11,"x_max":633,"ha":862,"o":"m 11 361 l 128 361 l 128 494 l 505 494 l 505 856 l 633 856 l 633 494 l 505 494 l 505 361 l 128 361 l 128 0 l 11 0 l 11 361 m 511 355 l 633 355 l 633 0 l 511 0 l 511 355 m 11 856 l 122 856 l 122 500 l 11 500 l 11 856 "},"c":{"x_min":11,"x_max":622,"ha":856,"o":"m 134 111 l 500 111 l 500 0 l 134 0 l 134 111 m 11 495 l 128 494 l 128 611 l 500 611 l 500 494 l 128 495 l 128 122 l 11 122 l 11 495 m 501 488 l 622 489 l 622 367 l 501 367 l 501 488 "},"&":{"x_min":11,"x_max":878,"ha":1111,"o":"m 634 117 l 762 117 l 762 234 l 878 234 l 878 117 l 762 117 l 762 0 l 634 0 l 634 117 m 511 240 l 628 240 l 628 368 l 756 368 l 756 240 l 628 240 l 628 123 l 511 123 l 511 240 m 256 733 l 500 733 l 500 616 l 389 616 l 389 495 l 500 495 l 500 378 l 256 378 l 256 733 m 11 989 l 122 989 l 122 622 l 11 622 l 11 989 "},"I":{"x_min":11.109375,"x_max":633.390625,"ha":862,"o":"m 11 866 l 255 866 l 255 755 l 11 755 l 11 866 m 266 116 l 266 750 l 383 750 l 383 866 l 633 866 l 633 750 l 383 750 l 383 116 l 633 116 l 633 0 l 383 0 l 383 116 l 266 116 m 11 0 l 11 111 l 255 111 l 255 0 l 11 0 "},"G":{"x_min":11,"x_max":633,"ha":862,"o":"m 145 117 l 500 117 l 500 239 l 266 239 l 266 356 l 633 356 l 633 117 l 506 117 l 506 0 l 145 0 l 145 117 m 11 739 l 139 739 l 139 856 l 500 856 l 500 739 l 139 739 l 139 123 l 11 123 l 11 739 m 501 739 l 633 739 l 633 622 l 501 622 l 501 739 "},"(":{"x_min":11,"x_max":256,"ha":493,"o":"m 134 111 l 256 111 l 256 0 l 134 0 l 134 111 m 11 750 l 128 750 l 128 867 l 256 867 l 256 750 l 128 750 l 128 122 l 11 122 l 11 750 "},"`":{"x_min":7,"x_max":129,"ha":362,"o":"m 7 867 l 129 867 l 129 622 l 7 622 l 7 867 "},"U":{"x_min":11,"x_max":633,"ha":871,"o":"m 132 117 l 505 117 l 505 867 l 633 867 l 633 117 l 505 117 l 505 0 l 132 0 l 132 117 m 11 867 l 122 867 l 122 123 l 11 123 l 11 867 "},"F":{"x_min":11,"x_max":622.484375,"ha":856,"o":"m 11 361 l 128 361 l 128 489 l 500 489 l 500 361 l 128 361 l 128 0 l 11 0 l 11 361 m 11 739 l 128 739 l 128 856 l 622 856 l 622 739 l 128 739 l 128 500 l 11 500 l 11 739 "},"r":{"x_min":11,"x_max":500,"ha":733,"o":"m 11 494 l 128 494 l 128 622 l 378 622 l 378 494 l 128 495 l 128 0 l 11 0 l 11 494 m 379 488 l 500 489 l 500 378 l 379 378 l 379 488 "},":":{"x_min":11,"x_max":122,"ha":360,"o":"m 11 233 l 122 233 l 122 0 l 11 0 l 11 233 m 11 733 l 122 733 l 122 499 l 11 499 l 11 733 "},"x":{"x_min":11,"x_max":622,"ha":856,"o":"m 11 117 l 128 117 l 128 250 l 261 250 l 261 372 l 383 372 l 383 494 l 505 494 l 505 622 l 622 622 l 622 494 l 505 494 l 505 372 l 383 372 l 383 250 l 261 250 l 261 117 l 128 117 l 128 0 l 11 0 l 11 117 m 383 250 l 504 250 l 504 123 l 383 123 l 383 250 m 127 492 l 255 492 l 255 374 l 127 374 l 127 492 m 11 622 l 127 622 l 127 500 l 11 500 l 11 622 m 507 121 l 622 121 l 622 0 l 507 0 l 507 121 "},"*":{"x_min":1.53125,"x_max":628.9375,"ha":849,"o":"m 1 377 l 246 377 l 246 499 l 1 499 l 1 621 l 252 621 l 252 743 l 374 743 l 374 871 l 624 871 l 624 743 l 380 743 l 380 621 l 624 621 l 624 499 l 374 499 l 374 377 l 252 377 l 252 249 l 1 249 l 1 377 m 384 376 l 628 376 l 628 253 l 384 253 l 384 376 m 1 871 l 246 871 l 246 749 l 1 749 l 1 871 "},"V":{"x_min":11,"x_max":622,"ha":860,"o":"m 259 69 l 259 118 l 383 118 l 383 250 l 505 250 l 505 867 l 622 867 l 622 250 l 505 250 l 505 117 l 383 116 l 383 0 l 260 0 l 259 69 m 123 254 l 255 254 l 256 122 l 123 122 l 123 254 m 11 867 l 122 867 l 122 255 l 11 255 l 11 867 "}," ":{"x_min":0,"x_max":0,"ha":378},"h":{"x_min":11,"x_max":622,"ha":856,"o":"m 11 494 l 128 494 l 128 611 l 500 611 l 500 494 l 128 494 l 128 0 l 11 0 l 11 494 m 511 488 l 622 488 l 622 0 l 511 0 l 511 488 m 11 819 l 11 866 l 122 866 l 122 622 l 11 622 l 11 819 "},"0":{"x_min":11,"x_max":622,"ha":851,"o":"m 133 117 l 500 117 l 500 488 l 383 488 l 383 372 l 261 372 l 261 250 l 127 250 l 127 123 l 11 123 l 11 750 l 127 750 l 127 867 l 500 867 l 500 750 l 133 750 l 133 378 l 261 378 l 261 494 l 383 494 l 383 616 l 506 616 l 506 744 l 622 744 l 622 117 l 506 117 l 506 0 l 133 0 l 133 117 "},".":{"x_min":11,"x_max":122,"ha":360,"o":"m 11 233 l 122 233 l 122 0 l 11 0 l 11 233 "},"”":{"x_min":2,"x_max":444,"ha":687,"o":"m 2 867 l 124 867 l 124 622 l 2 622 l 2 867 m 322 867 l 444 867 l 444 622 l 322 622 l 322 867 "},"@":{"x_min":11,"x_max":756,"ha":989,"o":"m 134 111 l 633 111 l 633 0 l 134 0 l 134 111 m 11 739 l 128 739 l 128 867 l 633 867 l 633 739 l 128 739 l 128 122 l 11 122 l 11 739 m 267 611 l 500 611 l 500 494 l 389 494 l 389 378 l 505 378 l 505 494 l 639 494 l 639 733 l 756 733 l 756 245 l 267 245 l 267 611 "},"f":{"x_min":11,"x_max":633,"ha":867,"o":"m 11 494 l 139 494 l 139 611 l 511 611 l 511 494 l 145 494 l 145 361 l 378 361 l 378 239 l 139 239 l 139 -133 l 11 -133 l 11 494 m 511 493 l 633 493 l 633 371 l 511 371 l 511 493 "},";":{"x_min":-113,"x_max":131,"ha":356,"o":"m -113 -67 l -113 -9 l 11 -9 l 11 230 l 131 230 l 131 -8 l 11 -9 l 14 -125 l -113 -125 l -113 -67 m 11 733 l 122 733 l 122 499 l 11 499 l 11 733 "},"“":{"x_min":2,"x_max":444,"ha":687,"o":"m 2 867 l 124 867 l 124 622 l 2 622 l 2 867 m 322 867 l 444 867 l 444 622 l 322 622 l 322 867 "},"i":{"x_min":11,"x_max":133,"ha":371,"o":"m 11 611 l 133 611 l 133 0 l 11 0 l 11 611 "},"6":{"x_min":11,"x_max":622,"ha":851,"o":"m 134 117 l 505 117 l 505 366 l 622 366 l 622 117 l 505 117 l 505 0 l 134 0 l 134 117 m 11 372 l 128 372 l 128 489 l 499 489 l 499 372 l 128 372 l 128 123 l 11 123 l 11 372 m 11 750 l 128 750 l 128 867 l 499 867 l 499 750 l 128 750 l 127 493 l 11 493 l 11 750 "},"A":{"x_min":11,"x_max":622,"ha":856,"o":"m 11 239 l 128 239 l 128 361 l 506 361 l 506 616 l 622 616 l 622 361 l 506 361 l 506 239 l 128 239 l 128 0 l 11 0 l 11 239 m 512 233 l 622 233 l 622 0 l 512 0 l 512 233 m 11 617 l 128 617 l 128 739 l 250 739 l 250 856 l 367 856 l 367 739 l 250 739 l 250 617 l 128 617 l 128 367 l 11 367 l 11 617 m 368 739 l 500 739 l 500 615 l 368 615 l 368 739 "},"‘":{"x_min":7,"x_max":129,"ha":362,"o":"m 7 867 l 129 867 l 129 622 l 7 622 l 7 867 "},"n":{"x_min":11,"x_max":622,"ha":856,"o":"m 11 622 l 500 622 l 500 494 l 128 494 l 128 0 l 11 0 l 11 622 m 511 488 l 622 488 l 622 0 l 511 0 l 511 488 "},"O":{"x_min":11,"x_max":622,"ha":851,"o":"m 134 128 l 505 128 l 505 744 l 622 744 l 622 128 l 505 128 l 505 0 l 134 0 l 134 128 m 11 750 l 128 750 l 128 867 l 499 867 l 499 750 l 128 750 l 128 134 l 11 134 l 11 750 "},"3":{"x_min":11,"x_max":622,"ha":860,"o":"m 134 117 l 505 117 l 505 367 l 622 367 l 622 117 l 505 117 l 505 0 l 134 0 l 134 117 m 11 245 l 131 245 l 131 123 l 11 123 l 11 245 m 134 495 l 505 495 l 505 744 l 622 744 l 622 495 l 505 495 l 505 378 l 134 378 l 134 495 m 11 750 l 128 750 l 128 867 l 499 867 l 499 750 l 128 750 l 128 622 l 11 622 l 11 750 "},"]":{"x_min":10.875,"x_max":244,"ha":482,"o":"m 10 117 l 122 117 l 122 739 l 10 739 l 10 867 l 244 867 l 244 0 l 10 0 l 10 117 "},"m":{"x_min":11,"x_max":744,"ha":977,"o":"m 11 494 l 128 494 l 128 622 l 378 622 l 378 494 l 128 494 l 128 0 l 11 0 l 11 494 m 389 494 l 506 494 l 506 622 l 623 622 l 623 494 l 506 494 l 506 0 l 389 0 l 389 494 m 633 488 l 744 488 l 744 0 l 633 0 l 633 488 "},"9":{"x_min":11,"x_max":633,"ha":867,"o":"m 134 117 l 505 117 l 505 367 l 633 367 l 633 117 l 505 117 l 505 0 l 134 0 l 134 117 m 134 495 l 505 495 l 505 744 l 633 744 l 633 495 l 505 495 l 505 378 l 134 378 l 134 495 m 11 750 l 128 750 l 128 867 l 499 867 l 499 750 l 128 750 l 128 501 l 11 501 l 11 750 "},"l":{"x_min":11,"x_max":122,"ha":360,"o":"m 11 867 l 122 867 l 122 0 l 11 0 l 11 867 "},"8":{"x_min":11,"x_max":633,"ha":862,"o":"m 143 117 l 505 117 l 505 366 l 633 366 l 633 117 l 505 117 l 505 0 l 143 0 l 143 117 m 11 372 l 138 372 l 138 494 l 505 494 l 505 744 l 633 744 l 633 494 l 505 494 l 505 372 l 138 372 l 135 120 l 11 120 l 11 372 m 11 750 l 138 750 l 138 867 l 499 867 l 499 750 l 138 750 l 138 500 l 11 500 l 11 750 "},"p":{"x_min":11,"x_max":634,"ha":867,"o":"m 139 122 l 261 122 l 261 0 l 500 0 l 500 128 l 261 128 l 261 250 l 139 250 l 139 488 l 11 488 l 11 -122 l 139 -122 l 139 122 m 634 494 l 517 494 l 517 622 l 145 622 l 145 494 l 517 494 l 517 134 l 634 134 l 634 494 "},"4":{"x_min":11,"x_max":622,"ha":847,"o":"m 511 244 l 622 244 l 622 0 l 511 0 l 511 244 m 11 495 l 127 495 l 127 617 l 250 618 l 250 751 l 383 751 l 383 867 l 622 867 l 622 372 l 505 372 l 506 256 l 11 256 l 11 495 m 133 495 l 133 378 l 500 378 l 500 745 l 383 745 l 383 618 l 250 617 l 250 495 l 133 495 "},"R":{"x_min":11,"x_max":633,"ha":867,"o":"m 11 867 l 500 867 l 499 750 l 134 750 l 134 500 l 505 500 l 505 744 l 633 744 l 633 494 l 505 494 l 505 373 l 383 373 l 383 255 l 261 255 l 261 367 l 128 367 l 128 0 l 11 0 l 11 867 m 511 122 l 633 122 l 633 0 l 511 0 l 511 122 m 389 254 l 504 254 l 504 124 l 389 124 l 389 254 "},"o":{"x_min":11,"x_max":622,"ha":851,"o":"m 134 128 l 505 128 l 505 488 l 622 488 l 622 128 l 505 128 l 505 0 l 134 0 l 134 128 m 11 494 l 128 494 l 128 622 l 499 622 l 499 494 l 128 494 l 128 134 l 11 134 l 11 494 "},"5":{"x_min":11,"x_max":622,"ha":851,"o":"m 134 117 l 505 117 l 505 367 l 622 367 l 622 117 l 505 116 l 505 0 l 134 0 l 134 117 m 11 245 l 122 245 l 122 123 l 11 122 l 11 245 m 128 489 l 499 489 l 499 378 l 128 378 l 128 489 m 11 867 l 622 867 l 622 750 l 128 750 l 128 499 l 11 499 l 11 867 "}}}
